
<svg width="0" height="0" xmlns="http://www.w3.org/2000/svg">
  <symbol id="cs_icon" width="27" height="18" viewBox="0 0 27 18" version="1.1">
    <g id="surface1">
      <rect x="0" y="0" width="27" height="18" style="fill:rgb(84.313725%,7.843137%,10.196078%);fill-opacity:1;stroke:none;"/>
      <path style=" stroke:none;fill-rule:nonzero;fill:rgb(100%,100%,100%);fill-opacity:1;" d="M 0 0 L 27 0 L 27 9 L 0 9 Z M 0 0 "/>
      <path style=" stroke:none;fill-rule:nonzero;fill:rgb(6.666667%,27.058824%,49.411765%);fill-opacity:1;" d="M 13.5 9 L 0 0 L 0 18 Z M 13.5 9 "/>
    </g>
  </symbol>

  <symbol id="en_icon" width="27" height="18" viewBox="0 0 27 18" version="1.1">
    <defs>
      <clipPath id="clip1">
        <path d="M 13.5 9 L 27 9 L 27 18 Z M 13.5 9 L 13.5 18 L 0 18 Z M 13.5 9 L 0 9 L 0 0 Z M 13.5 9 L 13.5 0 L 27 0 Z M 13.5 9 "/>
      </clipPath>
    </defs>
    
    <g id="surface1">
      <rect x="0" y="0" width="27" height="18" style="fill:rgb(0.392157%,12.941176%,41.176471%);fill-opacity:1;stroke:none;"/>
    
      <path style="fill-rule:nonzero;fill:rgb(0%,0%,0%);fill-opacity:1;stroke-width:6;stroke-linecap:butt;stroke-linejoin:miter;stroke:rgb(100%,100%,100%);stroke-opacity:1;stroke-miterlimit:4;" d="M 0 0 L 60 30 M 60 0 L 0 30 " transform="matrix(0.45,0,0,0.6,0,0)"/>
        <g clip-path="url(#clip1)" clip-rule="nonzero">
      <path style="fill-rule:nonzero;fill:rgb(0%,0%,0%);fill-opacity:1;stroke-width:4;stroke-linecap:butt;stroke-linejoin:miter;stroke:rgb(78.431373%,6.27451%,18.039216%);stroke-opacity:1;stroke-miterlimit:4;" d="M 0 0 L 60 30 M 60 0 L 0 30 " transform="matrix(0.45,0,0,0.6,0,0)"/>
    </g>
    <path style="fill-rule:nonzero;fill:rgb(0%,0%,0%);fill-opacity:1;stroke-width:10;stroke-linecap:butt;stroke-linejoin:miter;stroke:rgb(100%,100%,100%);stroke-opacity:1;stroke-miterlimit:4;" d="M 30 0 L 30 30 M 0 15 L 60 15 " transform="matrix(0.45,0,0,0.6,0,0)"/>
    <path style="fill-rule:nonzero;fill:rgb(0%,0%,0%);fill-opacity:1;stroke-width:6;stroke-linecap:butt;stroke-linejoin:miter;stroke:rgb(78.431373%,6.27451%,18.039216%);stroke-opacity:1;stroke-miterlimit:4;" d="M 30 0 L 30 30 M 0 15 L 60 15 " transform="matrix(0.45,0,0,0.6,0,0)"/>
    </g>
  </symbol>

  <symbol id="de_icon" width="27" height="18" viewBox="0 0 5 3">
    <rect id="black_stripe" width="5" height="3" y="0" x="0" fill="#000"/>
    <rect id="red_stripe" width="5" height="2" y="1" x="0" fill="#D00"/>
    <rect id="gold_stripe" width="5" height="1" y="2" x="0" fill="#FFCE00"/>
  </symbol>

  <symbol id="phone_icon" viewBox="0 0 24 24">
    <path d="M20.1 7.7l-1 1c1.8 1.8 1.8 4.6 0 6.5l1 1c2.5-2.3 2.5-6.1 0-8.5zM18 9.8l-1 1c.5.7.5 
      1.6 0 2.3l1 1c1.2-1.2 1.2-3 0-4.3zM14 1H4c-1.1 0-2 .9-2 2v18c0 1.1.9 2 2 2h10c1.1 0 2-.9 
      2-2V3c0-1.1-.9-2-2-2zm0 19H4V4h10v16z"
      fill="currentColor"
    />
  </symbol>

  <symbol id="email_icon" viewBox="0 0 24 24">
    <path d="M12 1.95c-5.52 0-10 4.48-10 10s4.48 10 10 10h5v-2h-5c-4.34 0-8-3.66-8-8s3.66-8 
      8-8 8 3.66 8 8v1.43c0 .79-.71 1.57-1.5 1.57s-1.5-.78-1.5-1.57v-1.43c0-2.76-2.24-5-5-5s-5 
      2.24-5 5 2.24 5 5 5c1.38 0 2.64-.56 3.54-1.47.65.89 1.77 1.47 2.96 1.47 1.97 0 3.5-1.6 
      3.5-3.57v-1.43c0-5.52-4.48-10-10-10zm0 13c-1.66 0-3-1.34-3-3s1.34-3 3-3 3 1.34 3 3-1.34 3-3 3z" 
      fill="currentColor"
    />
  </symbol>

  <symbol id="location_icon" viewBox="0 0 24 24">
    <path d="M12 8c-2.21 0-4 1.79-4 4s1.79 4 4 4 4-1.79 4-4-1.79-4-4-4zm8.94 3c-.46-4.17-3.77-7.48-7.94-7.94V1h-2v2.06C6.83 
      3.52 3.52 6.83 3.06 11H1v2h2.06c.46 4.17 3.77 7.48 7.94 7.94V23h2v-2.06c4.17-.46 7.48-3.77 7.94-7.94H23v-2h-2.06zM12 
      19c-3.87 0-7-3.13-7-7s3.13-7 7-7 7 3.13 7 7-3.13 7-7 7z" 
      fill="currentColor"
    />
  </symbol>

  <symbol id="google_icon" viewBox="0 0 48 48">
    <path 
      fill="#FFC107" 
      d="M43.611,20.083H42V20H24v8h11.303c-1.649,4.657-6.08,8-11.303,8c-6.627,0-12-5.373-12-12c0-6.627,5.373-12,12-12c3.059,0,5.842,1.154,7.961,3.039l5.657-5.657C34.046,6.053,29.268,4,24,4C12.955,4,4,12.955,4,24c0,11.045,8.955,20,20,20c11.045,0,20-8.955,20-20C44,22.659,43.862,21.35,43.611,20.083z"
    />
    <path fill="#FF3D00" d="M6.306,14.691l6.571,4.819C14.655,15.108,18.961,12,24,12c3.059,0,5.842,1.154,7.961,3.039l5.657-5.657C34.046,6.053,29.268,4,24,4C16.318,4,9.656,8.337,6.306,14.691z"/>
    <path fill="#4CAF50" d="M24,44c5.166,0,9.86-1.977,13.409-5.192l-6.19-5.238C29.211,35.091,26.715,36,24,36c-5.202,0-9.619-3.317-11.283-7.946l-6.522,5.025C9.505,39.556,16.227,44,24,44z"/>
    <path fill="#1976D2" d="M43.611,20.083H42V20H24v8h11.303c-0.792,2.237-2.231,4.166-4.087,5.571c0.001-0.001,0.002-0.001,0.003-0.002l6.19,5.238C36.971,39.205,44,34,44,24C44,22.659,43.862,21.35,43.611,20.083z"/>
  </symbol>

  <symbol viewBox="0 -96 512.2 512.2" id="tripadvisor_icon">
    <path 
      d="M128.2 127.9C92.7 127.9 64 156.6 64 192c0 35.4 28.7 64.1 64.1 64.1 35.4 0 64.1-28.7 64.1-64.1.1-35.4-28.6-64.1-64-64.1zm0 110c-25.3 0-45.9-20.5-45.9-45.9s20.5-45.9 45.9-45.9S174 166.7 174 192s-20.5 45.9-45.8 45.9z" 
      fill="#08808a"
    />
    <circle cx="128.4" cy="191.9" r="31.9" fill="#08808a" />
    <path d="M384.2 127.9c-35.4 0-64.1 28.7-64.1 64.1 0 35.4 28.7 64.1 64.1 64.1 35.4 0 64.1-28.7 64.1-64.1 0-35.4-28.7-64.1-64.1-64.1zm0 110c-25.3 0-45.9-20.5-45.9-45.9s20.5-45.9 45.9-45.9S430 166.7 430 192s-20.5 45.9-45.8 45.9z" />
    <circle cx="384.4" cy="191.9" r="31.9" fill="#08808a" />
    <path 
      d="M474.4 101.2l37.7-37.4h-76.4C392.9 29 321.8 0 255.9 0c-66 0-136.5 29-179.3 63.8H0l37.7 37.4C14.4 124.4 0 156.5 0 192c0 70.8 57.4 128.2 128.2 128.2 32.5 0 62.2-12.1 84.8-32.1l43.4 31.9 42.9-31.2-.5-1.2c22.7 
      20.2 52.5 32.5 85.3 32.5 70.8 0 128.2-57.4 128.2-128.2-.1-35.4-14.6-67.5-37.9-90.7zM368 64.8c-60.7 7.6-108.3 57.6-111.9 119.5-3.7-62-51.4-112.1-112.3-119.5 30.6-22 69.6-32.8 112.1-32.8S337.4 42.8 368 64.8zM128.2 288.2C75 288.2 
      32 245.1 32 192s43.1-96.2 96.2-96.2 96.2 43.1 96.2 96.2c-.1 53.1-43.1 96.2-96.2 96.2zm256 0c-53.1 0-96.2-43.1-96.2-96.2s43.1-96.2 96.2-96.2 96.2 43.1 96.2 96.2c-.1 53.1-43.1 96.2-96.2 96.2z"
      fill="#08808a"
    />
  </symbol>

  <symbol id="name_icon" viewBox="0 0 512 512">
    <path 
      d="M406.5 399.6C387.4 352.9 341.5 320 288 320l-64 0c-53.5 0-99.4 32.9-118.5 79.6C69.9 362.2 
      48 311.7 48 256C48 141.1 141.1 48 256 48s208 93.1 208 208c0 55.7-21.9 106.2-57.5 143.6zm-40.1 
      32.7C334.4 452.4 296.6 464 256 464s-78.4-11.6-110.5-31.7c7.3-36.7 39.7-64.3 78.5-64.3l64 0c38.8 
      0 71.2 27.6 78.5 64.3zM256 512A256 256 0 1 0 256 0a256 256 0 1 0 0 512zm0-272a40 40 0 1 1 0-80 
      40 40 0 1 1 0 80zm-88-40a88 88 0 1 0 176 0 88 88 0 1 0 -176 0z"
      fill="currentColor"
    />
  </symbol>

  <symbol id="guests_icon" viewBox="0 0 512 512">
    <path d="M402,168c-2.93,40.67-33.1,72-66,72s-63.12-31.32-66-72c-3-42.31,26.37-72,66-72S405,126.46,402,168Z" style="fill:none;stroke:currentColor;stroke-linecap:round;stroke-linejoin:round;stroke-width:45px"/>
    <path d="M336,304c-65.17,0-127.84,32.37-143.54,95.41-2.08,8.34,3.15,16.59,11.72,16.59H467.83c8.57,0,13.77-8.25,11.72-16.59C463.85,335.36,401.18,304,336,304Z" style="fill:none;stroke:currentColor;stroke-miterlimit:10;stroke-width:45px"/>
    <path d="M200,185.94C197.66,218.42,173.28,244,147,244S96.3,218.43,94,185.94C91.61,152.15,115.34,128,147,128S202.39,152.77,200,185.94Z" style="fill:none;stroke:currentColor;stroke-linecap:round;stroke-linejoin:round;stroke-width:45px"/>
    <path d="M206,306c-18.05-8.27-37.93-11.45-59-11.45-52,0-102.1,25.85-114.65,76.2C30.7,377.41,34.88,384,41.72,384H154" style="fill:none;stroke:currentColor;stroke-linecap:round;stroke-miterlimit:10;stroke-width:45px"/>
  </symbol>

  <symbol id="date_icon" viewBox="0 0 448 512">
    <path 
      d="M152 24c0-13.3-10.7-24-24-24s-24 10.7-24 24l0 40L64 64C28.7 64 0 92.7 0 128l0 16 0 48L0 448c0 35.3 28.7 64 64 64l320 0c35.3 0 
      64-28.7 64-64l0-256 0-48 0-16c0-35.3-28.7-64-64-64l-40 0 0-40c0-13.3-10.7-24-24-24s-24 10.7-24 24l0 40L152 64l0-40zM48 192l352 0 0 256c0 
      8.8-7.2 16-16 16L64 464c-8.8 0-16-7.2-16-16l0-256z"
      fill="currentColor"
    />
  </symbol>

  <symbol id="time_icon" viewBox="0 0 512 512">
    <path 
      d="M464 256A208 208 0 1 1 48 256a208 208 0 1 1 416 0zM0 256a256 256 0 1 0 512 0A256 256 0 1 0 0 256zM232 120l0 136c0 8 4 15.5 10.7 
      20l96 64c11 7.4 25.9 4.4 33.3-6.7s4.4-25.9-6.7-33.3L280 243.2 280 120c0-13.3-10.7-24-24-24s-24 10.7-24 24z"
      fill="currentColor"
    />
  </symbol>
</svg>
