
<svg width="0" height="0" xmlns="http://www.w3.org/2000/svg">
    <symbol id="cs_icon" width="27" height="18" viewBox="0 0 27 18" version="1.1">
      <g id="surface1">
        <rect x="0" y="0" width="27" height="18" style="fill:rgb(84.313725%,7.843137%,10.196078%);fill-opacity:1;stroke:none;"/>
        <path style=" stroke:none;fill-rule:nonzero;fill:rgb(100%,100%,100%);fill-opacity:1;" d="M 0 0 L 27 0 L 27 9 L 0 9 Z M 0 0 "/>
        <path style=" stroke:none;fill-rule:nonzero;fill:rgb(6.666667%,27.058824%,49.411765%);fill-opacity:1;" d="M 13.5 9 L 0 0 L 0 18 Z M 13.5 9 "/>
      </g>
    </symbol>

    <symbol id="en_icon" width="27" height="18" viewBox="0 0 27 18" version="1.1">
      <defs>
        <clipPath id="clip1">
          <path d="M 13.5 9 L 27 9 L 27 18 Z M 13.5 9 L 13.5 18 L 0 18 Z M 13.5 9 L 0 9 L 0 0 Z M 13.5 9 L 13.5 0 L 27 0 Z M 13.5 9 "/>
        </clipPath>
      </defs>
      
      <g id="surface1">
        <rect x="0" y="0" width="27" height="18" style="fill:rgb(0.392157%,12.941176%,41.176471%);fill-opacity:1;stroke:none;"/>
      
        <path style="fill-rule:nonzero;fill:rgb(0%,0%,0%);fill-opacity:1;stroke-width:6;stroke-linecap:butt;stroke-linejoin:miter;stroke:rgb(100%,100%,100%);stroke-opacity:1;stroke-miterlimit:4;" d="M 0 0 L 60 30 M 60 0 L 0 30 " transform="matrix(0.45,0,0,0.6,0,0)"/>
          <g clip-path="url(#clip1)" clip-rule="nonzero">
        <path style="fill-rule:nonzero;fill:rgb(0%,0%,0%);fill-opacity:1;stroke-width:4;stroke-linecap:butt;stroke-linejoin:miter;stroke:rgb(78.431373%,6.27451%,18.039216%);stroke-opacity:1;stroke-miterlimit:4;" d="M 0 0 L 60 30 M 60 0 L 0 30 " transform="matrix(0.45,0,0,0.6,0,0)"/>
      </g>
      <path style="fill-rule:nonzero;fill:rgb(0%,0%,0%);fill-opacity:1;stroke-width:10;stroke-linecap:butt;stroke-linejoin:miter;stroke:rgb(100%,100%,100%);stroke-opacity:1;stroke-miterlimit:4;" d="M 30 0 L 30 30 M 0 15 L 60 15 " transform="matrix(0.45,0,0,0.6,0,0)"/>
      <path style="fill-rule:nonzero;fill:rgb(0%,0%,0%);fill-opacity:1;stroke-width:6;stroke-linecap:butt;stroke-linejoin:miter;stroke:rgb(78.431373%,6.27451%,18.039216%);stroke-opacity:1;stroke-miterlimit:4;" d="M 30 0 L 30 30 M 0 15 L 60 15 " transform="matrix(0.45,0,0,0.6,0,0)"/>
      </g>
    </symbol>

    <symbol id="de_icon" width="27" height="18" viewBox="0 0 5 3">
      <rect id="black_stripe" width="5" height="3" y="0" x="0" fill="#000"/>
      <rect id="red_stripe" width="5" height="2" y="1" x="0" fill="#D00"/>
      <rect id="gold_stripe" width="5" height="1" y="2" x="0" fill="#FFCE00"/>
    </symbol>

    <symbol id="phone_icon" viewBox="0 0 24 24">
      <path d="M20.1 7.7l-1 1c1.8 1.8 1.8 4.6 0 6.5l1 1c2.5-2.3 2.5-6.1 0-8.5zM18 9.8l-1 1c.5.7.5 
        1.6 0 2.3l1 1c1.2-1.2 1.2-3 0-4.3zM14 1H4c-1.1 0-2 .9-2 2v18c0 1.1.9 2 2 2h10c1.1 0 2-.9 
        2-2V3c0-1.1-.9-2-2-2zm0 19H4V4h10v16z"
        fill="currentColor"
      />
    </symbol>

    <symbol id="email_icon" viewBox="0 0 24 24">
      <path d="M12 1.95c-5.52 0-10 4.48-10 10s4.48 10 10 10h5v-2h-5c-4.34 0-8-3.66-8-8s3.66-8 
        8-8 8 3.66 8 8v1.43c0 .79-.71 1.57-1.5 1.57s-1.5-.78-1.5-1.57v-1.43c0-2.76-2.24-5-5-5s-5 
        2.24-5 5 2.24 5 5 5c1.38 0 2.64-.56 3.54-1.47.65.89 1.77 1.47 2.96 1.47 1.97 0 3.5-1.6 
        3.5-3.57v-1.43c0-5.52-4.48-10-10-10zm0 13c-1.66 0-3-1.34-3-3s1.34-3 3-3 3 1.34 3 3-1.34 3-3 3z" 
        fill="currentColor"
      />
    </symbol>

    <symbol id="location_icon" viewBox="0 0 24 24">
      <path d="M12 8c-2.21 0-4 1.79-4 4s1.79 4 4 4 4-1.79 4-4-1.79-4-4-4zm8.94 3c-.46-4.17-3.77-7.48-7.94-7.94V1h-2v2.06C6.83 
        3.52 3.52 6.83 3.06 11H1v2h2.06c.46 4.17 3.77 7.48 7.94 7.94V23h2v-2.06c4.17-.46 7.48-3.77 7.94-7.94H23v-2h-2.06zM12 
        19c-3.87 0-7-3.13-7-7s3.13-7 7-7 7 3.13 7 7-3.13 7-7 7z" 
        fill="currentColor"
      />
    </symbol>
</svg>
